<?xml version="1.0" encoding="UTF-8"?>
<svg id="Calque_2" data-name="Calque 2" xmlns="http://www.w3.org/2000/svg" viewBox="0 0 298.86 159.63">
  <defs>
    <style>
      .cls-1 {
        fill: #fff;
      }

      .cls-2 {
        fill: #00757d;
      }

      .cls-3 {
        fill: #f39000;
      }

      .cls-4 {
        fill: #dde8eb;
      }

      .cls-5 {
        fill: #ed7004;
      }

      .cls-6 {
        fill: #03b2bc;
        font-family: Quicksand-Bold, Quicksand;
        font-size: 17.53px;
        letter-spacing: .01em;
        stroke: #00b3bc;
        stroke-miterlimit: 10;
        stroke-width: .25px;
      }
    </style>
  </defs>
  <g id="Charte_graphique" data-name="Charte graphique">
    <g>
      <path class="cls-4" d="M292.42,110.5c2.11-2.71,3.45-6.22,3.8-10.36,.01-.16,.02-.32,.03-.48,.22-6.02,.34-13.28,.34-21.58,0-2.5-.01-5.11-.04-7.74v-15.56c0-5.53,.13-8.34,.25-9.74,.06-.57,.09-1.12,.09-1.66,0-3.98-1.25-7.75-3.62-10.95-1.41-1.99-3.32-3.64-5.7-4.93-2.51-1.35-5.37-2.03-8.5-2.03-.17,0-.34,0-.51,.01l-.62,.03c-4.2,.07-8,1.55-10.96,4.19-1.17-1.09-2.53-2.06-4.08-2.87-2.53-1.31-5.46-1.98-8.71-1.98h-.67c-5.19,0-9.8,2.1-13.01,5.92-1.46,1.75-2.56,3.77-3.29,6.03l-2.67,6.47-2.87-7.5c-.06-.15-.12-.3-.18-.44-4.14-9.42-11.68-10.43-14.73-10.43h-1.5c.71-8.12-3.78-14.26-9.56-17.14-2.1-1.05-4.36-1.6-6.72-1.64-1.91-.03-6.4-.09-10.91-.09-3.52,0-6.37,.04-8.45,.11-12.05,.42-18.77,13.87-20.55,17.99-.02,.05-19.67,47.6-19.67,47.6-8.17-18.63-19.24-43.58-22.82-50.37-7.5-14.23-19.06-15.33-22.43-15.33-.24,0-.45,0-.62,.01h-15.16c-9.92,0-20.38,2.92-28.7,8.02-16.03,9.82-18.95,21.81-18.57,30.14,.62,13.69,8.97,23.05,21.79,24.42,.74,.08,1.48,.12,2.21,.12,5.11,0,10.74-2.05,15.19-7.08,0,7.93-.03,39.76-.03,44.29,0,8.39-1.99,17.51-6.36,17.7-.15,0-.3,0-.44,0-2.01,0-2.76-.4-8.43-10.16-1.26-2.18-2.69-4.64-4.34-7.32-8.48-13.78-17.74-16.68-24.03-16.68-2.74,0-4.83,.56-5.84,.83-4.34,1.12-13.75,5.93-18.36,16.12-2.65,5.87-4.49,15.48,1.83,27.97,8.36,16.52,23.64,25.24,44.19,25.24,6.39,0,13.38-.85,20.79-2.52,24.51-5.53,31.77-28.88,32.18-40.46,0-.12,0-.24,0-.36v-14.11c4.28,9.8,7.87,17.96,8.9,20.17,5.83,12.46,13.56,13.8,16.61,13.8h8.77c8.79,0,14.79-7.62,17.62-15.05,.24,3.01,1.13,5.7,2.67,8.06,3.17,4.85,8.23,6.78,11.91,6.97,.17,0,.34,.01,.52,.01h31.33c3.14,0,5.97-.84,8.3-2.42,.04,.02,.08,.06,.12,.08,2.51,1.45,5.26,2.18,8.19,2.18,1.55,0,3.05-.2,4.48-.59,.96,.27,1.96,.41,2.98,.41,1.72,0,3.36-.4,4.85-1.13,1.91,.85,3.99,1.3,6.21,1.3,1.39,0,2.76-.2,4.1-.58,.95,.26,1.94,.41,2.96,.41s2.06-.14,3.03-.42c.97,.27,1.99,.42,3.03,.42,1.15,0,2.26-.17,3.33-.51,1.41,.44,2.89,.68,4.42,.68,1.44,0,2.83-.21,4.16-.6,1.14,.39,2.34,.6,3.58,.6,.62,0,1.23-.05,1.83-.15,.67,.1,1.35,.15,2.04,.15,1.43,0,2.84-.22,4.18-.65,1.02,.31,2.09,.47,3.19,.47,1.17,0,2.32-.19,3.4-.54,1.46,.45,3,.71,4.63,.71s3.29-.27,4.87-.81c1.65-.56,3.12-1.36,4.36-2.36,2.58-2.08,4.1-5.08,4.19-8.29,.35-1.01,.56-2.07,.61-3.15,0-.14,0-.29,0-.43,0-2.55-.67-5.06-1.94-7.27-.69-1.2-1.53-2.26-2.49-3.2Z"/>
      <path class="cls-1" d="M294.41,104.48c2.11-2.71,3.45-6.22,3.8-10.36,.01-.16,.02-.32,.03-.48,.22-6.02,.34-13.28,.34-21.58,0-2.5-.01-5.11-.04-7.74v-15.56c0-5.53,.13-8.34,.25-9.74,.06-.57,.09-1.12,.09-1.66,0-3.98-1.25-7.75-3.62-10.95-1.41-1.99-3.32-3.64-5.7-4.93-2.51-1.35-5.37-2.03-8.5-2.03-.17,0-.34,0-.51,.01l-.62,.03c-4.2,.07-8,1.55-10.96,4.19-1.17-1.09-2.53-2.06-4.08-2.87-2.53-1.31-5.46-1.98-8.71-1.98h-.67c-5.19,0-9.8,2.1-13.01,5.92-1.46,1.75-2.56,3.77-3.29,6.03l-2.67,6.47-2.87-7.5c-.06-.15-.12-.3-.18-.44-4.14-9.42-11.68-10.43-14.73-10.43h-1.5c.71-8.12-3.78-14.26-9.56-17.14-2.1-1.05-4.36-1.6-6.72-1.64-1.91-.03-6.4-.09-10.91-.09-3.52,0-6.37,.04-8.45,.11-12.05,.42-18.77,13.87-20.55,17.99-.02,.05-19.67,47.6-19.67,47.6-8.17-18.63-19.24-43.58-22.82-50.37C111.06,1.11,99.5,0,96.13,0c-.24,0-.45,0-.62,.01h-15.16C70.42,.01,59.96,2.93,51.65,8.03c-16.03,9.82-18.95,21.81-18.57,30.14,.62,13.69,8.97,23.05,21.79,24.42,.74,.08,1.48,.12,2.21,.12,5.11,0,10.74-2.05,15.19-7.08,0,7.93-.03,39.76-.03,44.29,0,8.39-1.99,17.51-6.36,17.7-.15,0-.3,0-.44,0-2.01,0-2.76-.4-8.43-10.16-1.26-2.18-2.69-4.64-4.34-7.32-8.48-13.78-17.74-16.68-24.03-16.68-2.74,0-4.83,.56-5.84,.83-4.34,1.12-13.75,5.93-18.36,16.12-2.65,5.87-4.49,15.48,1.83,27.97,8.36,16.52,23.64,25.24,44.19,25.24,6.39,0,13.38-.85,20.79-2.52,24.51-5.53,31.77-28.88,32.18-40.46,0-.12,0-.24,0-.36v-14.11c4.28,9.8,7.87,17.96,8.9,20.17,5.83,12.46,13.56,13.8,16.61,13.8h8.77c8.79,0,14.79-7.62,17.62-15.05,.24,3.01,1.13,5.7,2.67,8.06,3.17,4.85,8.23,6.78,11.91,6.97,.17,0,.34,.01,.52,.01h31.33c3.14,0,5.97-.84,8.3-2.42,.04,.02,.08,.06,.12,.08,2.51,1.45,5.26,2.18,8.19,2.18,1.55,0,3.05-.2,4.48-.59,.96,.27,1.96,.41,2.98,.41,1.72,0,3.36-.4,4.85-1.13,1.91,.85,3.99,1.3,6.21,1.3,1.39,0,2.76-.2,4.1-.58,.95,.26,1.94,.41,2.96,.41s2.06-.14,3.03-.42c.97,.27,1.99,.42,3.03,.42,1.15,0,2.26-.17,3.33-.51,1.41,.44,2.89,.68,4.42,.68,1.44,0,2.83-.21,4.16-.6,1.14,.39,2.34,.6,3.58,.6,.62,0,1.23-.05,1.83-.15,.67,.1,1.35,.15,2.04,.15,1.43,0,2.84-.22,4.18-.65,1.02,.31,2.09,.47,3.19,.47,1.17,0,2.32-.19,3.4-.54,1.46,.45,3,.71,4.63,.71s3.29-.27,4.87-.81c1.65-.56,3.12-1.36,4.36-2.36,2.58-2.08,4.1-5.08,4.19-8.29,.35-1.01,.56-2.07,.61-3.15,0-.14,0-.29,0-.43,0-2.55-.67-5.06-1.94-7.27-.69-1.2-1.53-2.26-2.49-3.2Z"/>
      <path class="cls-5" d="M141.63,91.16l28.57-69.11s5.07-11.75,11.75-11.98c5.6-.19,15.74-.06,18.87-.02,.85,.01,1.67,.21,2.42,.59,2.25,1.12,5.98,4.14,3.13,11.17-3.92,9.68-5.3,7.83-6.22,13.82-.92,5.99,0,51.14,0,51.14,0,0,.02,5.97,3.23,14.97,1.49,4.19,6.91,18.43-1.61,18.43h-31.33s-8.89-.46-3.46-14.84c5.41-14.32,5.07-28.01,5.07-28.01v-28.8l-25.8,62.43s-3.22,9.21-8.52,9.21h-8.75s-3.77,.14-7.6-8.06c-2.94-6.29-27.87-63.81-27.87-63.81v61.97s-.92,25.8-24.42,31.1c-23.5,5.3-44,2.07-53.91-17.51-9.91-19.58,5.89-28.85,10.14-29.95,1.91-.49,9.91-3.18,18.89,11.42,8.98,14.61,11.29,22.67,22.12,22.21,10.83-.46,15.9-12.21,15.9-27.64s.08-65.79,0-67.96-1.38-10.14-5.07-10.14-5.53,3.92-7.37,15.2c-1.84,11.29-7.37,16.36-13.82,15.67-6.45-.69-12.44-4.84-12.9-14.97-.46-10.14,6.68-16.82,13.82-21.19,7.14-4.38,15.9-6.55,23.5-6.55h15.43s8.3-.75,13.97,10.01c5.67,10.75,31.88,71.18,31.88,71.18Z"/>
      <path class="cls-1" d="M172.35,104.83c.06-.25-.27-.38-.41-.17-.82,1.27-2.11,3.41-2.7,5.17-.89,2.68-.88,5.4,.34,6.49,.74,.66,2.03,.45,2.58-.27,.83-1.09-.34-2.81-.68-3.85-.5-1.56,.38-5.31,.87-7.37Z"/>
      <path class="cls-1" d="M49.15,28.58c0-.3-.41-.38-.52-.1-.64,1.66-1.66,4.45-1.85,6.63-.64,7.09,2.99,8.44,3.82,7.76,1.91-1.57-.19-3.56-.75-5.23-.96-2.85-.75-6.57-.7-9.06Z"/>
      <path class="cls-1" d="M16.1,113.08c-.14,.3-.57,.12-.53-.21,.24-1.96,.81-4.67,2.11-7.2,3.55-6.89,7.58-6.05,8.01-4.97,.71,1.78-2.47,2.06-3.87,3.37-3.87,3.64-4.37,6.19-5.72,9Z"/>
      <path class="cls-3" d="M262.83,31.64c1.17,1.54,1.76,3.27,1.76,5.2,0,.25-.01,.5-.04,.75-.25,3.13-.39,7.38-.42,12.74v5.45c0,3.72,.01,7.56,.04,11.53,.03,3.3,.04,6.41,.04,9.35,0,6.59-.08,12.29-.25,17.1-.36,4.25-2.18,6.65-5.45,7.21h-2.14c-2.18,0-4-.64-5.45-1.91-1.45-1.27-2.18-2.88-2.18-4.84-.03-10.76-.15-22.7-.38-35.83v-.46c-.03-.98-.04-1.96-.04-2.93l-11.19,27.07c-.28,.76-.8,1.46-1.57,2.12-.77,.66-1.92,1.03-3.46,1.11h-.34c-.92,0-1.98-.22-3.16-.67-1.19-.45-2.1-1.38-2.74-2.81-1.03-2.82-2.37-6.43-4.02-10.81-1.65-4.39-3.34-8.95-5.07-13.71v36.8c0,.84-.24,1.54-.71,2.1-.48,.56-1.06,.84-1.76,.84h-2.51c-.7,0-1.29-.28-1.76-.84-.48-.56-.71-1.26-.71-2.1l-.04-58.17c.03-2.26,.8-4.14,2.31-5.62,1.17-.98,2.44-1.47,3.81-1.47h3.35c2.43,0,4.3,1.5,5.62,4.48l11.82,30.85,12.41-30.01c.33-1.17,.85-2.18,1.55-3.02,1.31-1.57,3.1-2.35,5.36-2.35h.67c1.65,0,3.02,.29,4.13,.86,1.1,.57,1.95,1.24,2.54,1.99Z"/>
      <path class="cls-2" d="M281.04,29.4c1.48,0,2.74,.28,3.79,.84,1.04,.56,1.82,1.23,2.35,2,1.15,1.51,1.73,3.21,1.73,5.11,0,.25-.02,.49-.04,.74-.19,2.28-.29,5.83-.29,10.67v15.56c.03,2.69,.04,5.27,.04,7.74,0,8.24-.11,15.31-.33,21.21-.36,4.17-2.1,6.53-5.23,7.08h-2.06c-2.11,0-3.87-.63-5.27-1.89-1.4-1.26-2.1-2.84-2.1-4.73-.03-10.57-.15-22.3-.37-35.21-.17-9.61-.25-16.39-.25-20.34,0-2.69,.64-4.83,1.93-6.42,1.29-1.54,3.05-2.3,5.27-2.3l.82-.04Z"/>
      <text class="cls-6" transform="translate(211.26 119.86)"><tspan x="0" y="0">Grenoble</tspan></text>
    </g>
  </g>
</svg>